<?xml version="1.0" standalone="no"?>
<svg xmlns:xlink="http://www.w3.org/1999/xlink" id="wave" style="transform:rotate(0deg); transition: 0.3s" viewBox="0 0 1440 490" version="1.1" xmlns="http://www.w3.org/2000/svg"><defs><linearGradient id="sw-gradient-0" x1="0" x2="0" y1="1" y2="0"><stop stop-color="rgba(89.463, 62, 243, 1)" offset="0%"/><stop stop-color="rgba(255, 179, 11, 1)" offset="100%"/></linearGradient></defs><path style="transform:translate(0, 0px); opacity:1" fill="url(#sw-gradient-0)" d="M0,294L26.7,294C53.3,294,107,294,160,310.3C213.3,327,267,359,320,359.3C373.3,359,427,327,480,261.3C533.3,196,587,98,640,89.8C693.3,82,747,163,800,220.5C853.3,278,907,310,960,269.5C1013.3,229,1067,114,1120,73.5C1173.3,33,1227,65,1280,89.8C1333.3,114,1387,131,1440,187.8C1493.3,245,1547,343,1600,392C1653.3,441,1707,441,1760,383.8C1813.3,327,1867,212,1920,147C1973.3,82,2027,65,2080,81.7C2133.3,98,2187,147,2240,212.3C2293.3,278,2347,359,2400,400.2C2453.3,441,2507,441,2560,367.5C2613.3,294,2667,147,2720,106.2C2773.3,65,2827,131,2880,187.8C2933.3,245,2987,294,3040,277.7C3093.3,261,3147,180,3200,196C3253.3,212,3307,327,3360,326.7C3413.3,327,3467,212,3520,196C3573.3,180,3627,261,3680,285.8C3733.3,310,3787,278,3813,261.3L3840,245L3840,490L3813.3,490C3786.7,490,3733,490,3680,490C3626.7,490,3573,490,3520,490C3466.7,490,3413,490,3360,490C3306.7,490,3253,490,3200,490C3146.7,490,3093,490,3040,490C2986.7,490,2933,490,2880,490C2826.7,490,2773,490,2720,490C2666.7,490,2613,490,2560,490C2506.7,490,2453,490,2400,490C2346.7,490,2293,490,2240,490C2186.7,490,2133,490,2080,490C2026.7,490,1973,490,1920,490C1866.7,490,1813,490,1760,490C1706.7,490,1653,490,1600,490C1546.7,490,1493,490,1440,490C1386.7,490,1333,490,1280,490C1226.7,490,1173,490,1120,490C1066.7,490,1013,490,960,490C906.7,490,853,490,800,490C746.7,490,693,490,640,490C586.7,490,533,490,480,490C426.7,490,373,490,320,490C266.7,490,213,490,160,490C106.7,490,53,490,27,490L0,490Z"/><defs><linearGradient id="sw-gradient-1" x1="0" x2="0" y1="1" y2="0"><stop stop-color="rgba(243, 106, 62, 1)" offset="0%"/><stop stop-color="rgba(97.614, 11, 255, 1)" offset="100%"/></linearGradient></defs><path style="transform:translate(0, 50px); opacity:0.9" fill="url(#sw-gradient-1)" d="M0,196L26.7,187.8C53.3,180,107,163,160,204.2C213.3,245,267,343,320,367.5C373.3,392,427,343,480,269.5C533.3,196,587,98,640,65.3C693.3,33,747,65,800,114.3C853.3,163,907,229,960,261.3C1013.3,294,1067,294,1120,294C1173.3,294,1227,294,1280,245C1333.3,196,1387,98,1440,49C1493.3,0,1547,0,1600,65.3C1653.3,131,1707,261,1760,294C1813.3,327,1867,261,1920,204.2C1973.3,147,2027,98,2080,114.3C2133.3,131,2187,212,2240,277.7C2293.3,343,2347,392,2400,359.3C2453.3,327,2507,212,2560,179.7C2613.3,147,2667,196,2720,245C2773.3,294,2827,343,2880,359.3C2933.3,376,2987,359,3040,343C3093.3,327,3147,310,3200,277.7C3253.3,245,3307,196,3360,204.2C3413.3,212,3467,278,3520,253.2C3573.3,229,3627,114,3680,130.7C3733.3,147,3787,294,3813,367.5L3840,441L3840,490L3813.3,490C3786.7,490,3733,490,3680,490C3626.7,490,3573,490,3520,490C3466.7,490,3413,490,3360,490C3306.7,490,3253,490,3200,490C3146.7,490,3093,490,3040,490C2986.7,490,2933,490,2880,490C2826.7,490,2773,490,2720,490C2666.7,490,2613,490,2560,490C2506.7,490,2453,490,2400,490C2346.7,490,2293,490,2240,490C2186.7,490,2133,490,2080,490C2026.7,490,1973,490,1920,490C1866.7,490,1813,490,1760,490C1706.7,490,1653,490,1600,490C1546.7,490,1493,490,1440,490C1386.7,490,1333,490,1280,490C1226.7,490,1173,490,1120,490C1066.7,490,1013,490,960,490C906.7,490,853,490,800,490C746.7,490,693,490,640,490C586.7,490,533,490,480,490C426.7,490,373,490,320,490C266.7,490,213,490,160,490C106.7,490,53,490,27,490L0,490Z"/><defs><linearGradient id="sw-gradient-2" x1="0" x2="0" y1="1" y2="0"><stop stop-color="rgba(243, 106, 62, 1)" offset="0%"/><stop stop-color="rgba(255, 11, 214.018, 1)" offset="100%"/></linearGradient></defs><path style="transform:translate(0, 100px); opacity:0.8" fill="url(#sw-gradient-2)" d="M0,196L26.7,204.2C53.3,212,107,229,160,253.2C213.3,278,267,310,320,318.5C373.3,327,427,310,480,285.8C533.3,261,587,229,640,212.3C693.3,196,747,196,800,236.8C853.3,278,907,359,960,326.7C1013.3,294,1067,147,1120,122.5C1173.3,98,1227,196,1280,253.2C1333.3,310,1387,327,1440,326.7C1493.3,327,1547,310,1600,326.7C1653.3,343,1707,392,1760,400.2C1813.3,408,1867,376,1920,375.7C1973.3,376,2027,408,2080,400.2C2133.3,392,2187,343,2240,334.8C2293.3,327,2347,359,2400,383.8C2453.3,408,2507,425,2560,416.5C2613.3,408,2667,376,2720,326.7C2773.3,278,2827,212,2880,228.7C2933.3,245,2987,343,3040,383.8C3093.3,425,3147,408,3200,334.8C3253.3,261,3307,131,3360,98C3413.3,65,3467,131,3520,163.3C3573.3,196,3627,196,3680,196C3733.3,196,3787,196,3813,196L3840,196L3840,490L3813.3,490C3786.7,490,3733,490,3680,490C3626.7,490,3573,490,3520,490C3466.7,490,3413,490,3360,490C3306.7,490,3253,490,3200,490C3146.7,490,3093,490,3040,490C2986.7,490,2933,490,2880,490C2826.7,490,2773,490,2720,490C2666.7,490,2613,490,2560,490C2506.7,490,2453,490,2400,490C2346.7,490,2293,490,2240,490C2186.7,490,2133,490,2080,490C2026.7,490,1973,490,1920,490C1866.7,490,1813,490,1760,490C1706.7,490,1653,490,1600,490C1546.7,490,1493,490,1440,490C1386.7,490,1333,490,1280,490C1226.7,490,1173,490,1120,490C1066.7,490,1013,490,960,490C906.7,490,853,490,800,490C746.7,490,693,490,640,490C586.7,490,533,490,480,490C426.7,490,373,490,320,490C266.7,490,213,490,160,490C106.7,490,53,490,27,490L0,490Z"/></svg>